:SAMPLES-PER-SECOND 24
:FULLY-SPECIFIED
:DEGREES
268
root  -5.22462 37.2334 -17.1829 -162.425 79.9402 -168.341
RightUpLeg  -24.8271 14.3558 -16.7102
RightLeg  36.4835 -5.97625 -4.98041
RightFoot  -11.1036 -0.120951 17.3512
RightToes  -2.09809e-008 3.77894e-005 6.81332e-007
Spine  -1.77987 3.80585 3.45827
Spine1  9.3201 5.02386 -3.57598
HEad  -29.5782 39.7862 -18.2789
LeftShoulder1  8.09582 -13.86 -40.3976
LeftArm  2.75546 9.334 -22.6869
LeftForeArm  169.582 -66.668 -157.291
LeftHand  -0.294458 -1.19976 5.33072
RightShoulder  3.90273 6.64974 32.552
RightArm  12.3633 -18.8086 37.3099
RightForeArm  158.69 75.0223 142.232
RightHand  -0.465647 10.7725 -3.74866
LeftUpLeg  -9.83651 -25.4225 20.6429
LeftLeg  27.4914 -3.48264 -1.62497
LeftFoot  -23.5463 -1.51855 -15.5279
LeftToes  1.24773e-006 1.46318e-008 1.32523e-009
269
root  -4.33453 37.8228 -15.5406 -165.533 77.1035 -170.994
RightUpLeg  -21.3597 12.2027 -12.6922
RightLeg  34.9372 -6.47634 -5.07988
RightFoot  -12.18 0.0230976 13.488
RightToes  -2.09809e-008 3.77894e-005 6.81332e-007
Spine  -3.70753 2.94556 1.87679
Spine1  11.0938 3.77063 -1.57158
HEad  -29.065 41.1742 -16.8613
LeftShoulder1  7.94901 -13.7019 -39.9988
LeftArm  -0.552538 14.3604 -22.41
LeftForeArm  171.69 -64.0769 -159.927
LeftHand  -0.287902 -1.16165 5.24288
RightShoulder  3.89291 6.60896 32.6103
RightArm  12.4173 -22.4566 38.1288
RightForeArm  163.478 72.637 148.205
RightHand  -0.346909 10.5875 -2.92554
LeftUpLeg  -10.2538 -24.0819 22.9611
LeftLeg  26.7436 -2.31188 -0.927536
LeftFoot  -14.4424 -0.399725 -19.1832
LeftToes  1.24773e-006 1.46318e-008 1.32523e-009
270
root  -3.61219 39.0582 -14.2461 -166.118 74.803 -172.293
RightUpLeg  -17.9623 9.96365 -10.1443
RightLeg  28.7857 -6.24578 -3.90581
RightFoot  -8.07629 -0.41136 12.4779
RightToes  -2.09809e-008 3.77894e-005 6.81332e-007
Spine  -6.16054 1.74939 1.02385
Spine1  12.0916 2.36977 -0.932494
HEad  -27.6678 43.5451 -15.4472
LeftShoulder1  7.55739 -13.3051 -38.8153
LeftArm  -2.01007 20.9242 -24.7591
LeftForeArm  172.181 -61.5326 -161.972
LeftHand  -0.285577 -0.874893 5.41125
RightShoulder  3.90942 6.60065 32.8058
RightArm  13.2505 -27.3474 36.5215
RightForeArm  166.276 69.9895 152.896
RightHand  -0.258388 10.5075 -2.29537
LeftUpLeg  -12.5099 -18.6985 23.1613
LeftLeg  26.1326 4.93391 2.97101
LeftFoot  1.00808 2.00084 -18.5211
LeftToes  1.24773e-006 1.46318e-008 1.32523e-009
271
root  -3.12847 40.5464 -13.2642 -165.182 74.0478 -172.336
RightUpLeg  -15.4275 5.13804 -8.63545
RightLeg  21.2159 -1.46148 -0.84287
RightFoot  -0.490907 -1.19743 12.5266
RightToes  -2.09809e-008 3.77894e-005 6.81332e-007
Spine  -7.20341 1.29649 0.990195
Spine1  11.0759 1.77078 -0.855884
HEad  -24.427 45.4946 -14.0093
LeftShoulder1  7.24744 -13.0079 -37.7949
LeftArm  -2.30169 26.9286 -28.5205
LeftForeArm  173.924 -60.1392 -163.085
LeftHand  -0.253519 -1.18076 4.61769
RightShoulder  3.90835 6.58379 32.8599
RightArm  14.1308 -32.0406 32.8317
RightForeArm  167.647 67.9834 155.623
RightHand  -0.196695 10.5467 -1.84342
LeftUpLeg  -14.0468 -8.31275 20.5746
LeftLeg  24.3892 12.5455 6.46755
LeftFoot  12.9471 2.99316 -14.2211
LeftToes  1.24773e-006 1.46318e-008 1.32523e-009
272
root  -2.7775 41.7367 -12.3537 -164.068 75.0668 -172.457
RightUpLeg  -14.712 -0.474317 -8.16123
RightLeg  15.5391 8.848 1.90047
RightFoot  6.85781 -2.78398 17.5362
RightToes  -2.09809e-008 3.77894e-005 6.81332e-007
Spine  -8.04681 1.69716 0.098351
Spine1  9.95013 1.93387 -0.0248432
HEad  -21.8722 46.3664 -13.7231
LeftShoulder1  7.27973 -13.0754 -37.8102
LeftArm  -2.3103 31.3081 -31.4168
LeftForeArm  175.017 -58.627 -164.124
LeftHand  -0.182978 -1.42472 3.26171
RightShoulder  3.94555 6.65985 32.9355
RightArm  15.1519 -35.2177 28.4771
RightForeArm  167.148 66.3223 157.369
RightHand  -0.12081 10.2196 -1.30712
LeftUpLeg  -14.7321 4.06226 16.4524
LeftLeg  21.1276 10.5015 4.79983
LeftFoot  14.6356 3.91522 -17.3301
LeftToes  1.24773e-006 1.46318e-008 1.32523e-009
273
root  -2.50228 42.2197 -11.4153 -163.609 76.2441 -172.88
RightUpLeg  -15.2651 0.44829 -8.96401
RightLeg  14.2131 12.4363 2.25102
RightFoot  8.15238 -3.75366 22.028
RightToes  -2.09809e-008 3.77894e-005 6.81332e-007
Spine  -8.66153 2.04044 -0.408047
Spine1  9.67537 2.21246 0.178138
HEad  -22.2191 46.3829 -15.0161
LeftShoulder1  7.2048 -13.0177 -37.5207
LeftArm  -1.59554 33.0742 -33.4323
LeftForeArm  172.918 -57.2972 -164.717
LeftHand  -0.162869 -1.06914 3.05421
RightShoulder  3.99673 6.78426 32.9633
RightArm  16.2769 -36.2005 25.7421
RightForeArm  165.656 65.5323 157.986
RightHand  -0.137431 9.67378 -1.46104
LeftUpLeg  -15.5658 9.99589 13.0616
LeftLeg  18.5357 -0.804948 0.040234
LeftFoot  11.7594 5.67419 -27.6937
LeftToes  1.24773e-006 1.46318e-008 1.32523e-009
274
root  -2.36046 42.0878 -10.5875 -163.314 76.0706 -172.216
RightUpLeg  -15.9699 5.67471 -10.2054
RightLeg  18.1267 2.43338 0.438346
RightFoot  6.48866 -2.06341 13.2715
RightToes  -2.09809e-008 3.77894e-005 6.81332e-007
Spine  -7.75357 1.98817 1.78048
Spine1  9.50383 2.27171 -1.09009
HEad  -24.1849 45.5241 -16.8106
LeftShoulder1  6.76624 -12.5519 -36.0963
LeftArm  -0.534465 31.7694 -34.9876
LeftForeArm  171.678 -57.3403 -164.589
LeftHand  -0.174455 -1.13542 3.22929
RightShoulder  3.92472 6.71996 32.5022
RightArm  16.6816 -35.4386 25.6945
RightForeArm  165.512 66.033 157.475
RightHand  -0.205975 9.3219 -2.01857
LeftUpLeg  -16.192 4.58276 11.738
LeftLeg  17.9568 -7.32033 -2.3532
LeftFoot  9.35964 5.28799 -28.7899
LeftToes  1.24773e-006 1.46318e-008 1.32523e-009
275
root  -2.28963 41.426 -9.80133 -163.336 75.5697 -171.217
RightUpLeg  -16.56 7.8707 -10.7287
RightLeg  24.5466 -9.6095 -4.98048
RightFoot  7.16581 -0.388076 2.68311
RightToes  -2.09809e-008 3.77894e-005 6.81332e-007
Spine  -6.06303 1.8606 4.41583
Spine1  8.9861 2.35563 -2.6572
HEad  -25.3657 44.0886 -17.8988
LeftShoulder1  6.43322 -12.1859 -34.9841
LeftArm  -0.464724 28.7634 -35.8835
LeftForeArm  172.993 -58.5844 -163.976
LeftHand  -0.127674 -1.66655 2.26024
RightShoulder  3.78198 6.53632 31.7799
RightArm  16.3288 -33.7729 26.5858
RightForeArm  165.557 66.9963 156.478
RightHand  -0.204308 9.2963 -2.00776
LeftUpLeg  -16.9003 -5.02203 11.3857
LeftLeg  20.8303 -2.0442 -0.532805
LeftFoot  5.33795 2.85642 -19.5436
LeftToes  1.24773e-006 1.46318e-008 1.32523e-009
276
root  -2.18267 40.0562 -8.85983 -163.719 76.0372 -170.84
RightUpLeg  -17.2112 10.2085 -12.1056
RightLeg  31.0894 -14.1696 -9.22205
RightFoot  3.30694 -0.883254 7.59416
RightToes  -2.09809e-008 3.77894e-005 6.81332e-007
Spine  -4.69793 1.95597 4.84812
Spine1  8.24397 2.50018 -2.97039
HEad  -25.9232 43.3256 -18.3511
LeftShoulder1  6.47554 -12.2312 -35.1298
LeftArm  -0.94677 25.1612 -35.3463
LeftForeArm  172.738 -59.7553 -163.228
LeftHand  -0.137108 -1.7152 2.40678
RightShoulder  3.76722 6.53624 31.6316
RightArm  16.3079 -30.7629 26.673
RightForeArm  163.872 67.7516 155.434
RightHand  -0.269019 9.55776 -2.48224
LeftUpLeg  -18.077 -10.8476 11.5546
LeftLeg  26.8595 6.74603 4.03406
LeftFoot  -3.16869 0.988308 -13.8964
LeftToes  1.24773e-006 1.46318e-008 1.32523e-009
277
root  -2.03236 38.3468 -7.65358 -168.089 76.7217 -174.834
RightUpLeg  -17.2113 9.9452 -13.6388
RightLeg  35.2177 -9.56603 -7.39684
RightFoot  -9.62367 -0.301457 16.8176
RightToes  -2.09809e-008 3.77894e-005 6.81332e-007
Spine  -4.45767 2.12798 1.46617
Spine1  8.84557 2.35487 -1.06869
HEad  -27.8193 42.8575 -19.1573
LeftShoulder1  6.8759 -12.6075 -36.6213
LeftArm  -0.986335 19.4522 -32.0104
LeftForeArm  171.076 -60.2166 -162.778
LeftHand  -0.268547 -1.13434 4.91758
RightShoulder  3.78844 6.5246 31.8891
RightArm  15.6303 -26.1913 27.4196
RightForeArm  163.533 68.5701 154.41
RightHand  -0.37348 9.6985 -3.26765
LeftUpLeg  -19.7631 -12.1703 12.1727
LeftLeg  33.1893 9.28246 6.79661
LeftFoot  -12.305 -0.0687411 -15.3246
LeftToes  1.24773e-006 1.46318e-008 1.32523e-009
278
root  -1.8842 37.29 -6.39811 -171.138 76.2382 -177.566
RightUpLeg  -16.7773 6.63642 -12.7619
RightLeg  36.837 -5.39748 -4.59129
RightFoot  -20.1414 1.03273 15.546
RightToes  -2.09809e-008 3.77894e-005 6.81332e-007
Spine  -5.65808 2.1891 -1.25626
Spine1  11.5868 2.07457 1.04153
HEad  -31.4231 41.054 -20.1018
LeftShoulder1  7.3206 -13.0152 -38.1994
LeftArm  -1.63363 12.5146 -28.1866
LeftForeArm  172.394 -61.1982 -162.229
LeftHand  -0.334857 -0.918647 6.28512
RightShoulder  3.74269 6.34811 32.1055
RightArm  12.6011 -22.8022 30.8034
RightForeArm  166.779 69.7177 153.339
RightHand  -0.261667 9.94706 -2.38104
LeftUpLeg  -21.0991 -11.6916 13.8352
LeftLeg  36.4057 7.81447 6.50513
LeftFoot  -16.7273 -0.715895 -17.1898
LeftToes  1.24773e-006 1.46318e-008 1.32523e-009
279
root  -1.73713 37.4782 -5.26453 -166.212 75.0006 -172.14
RightUpLeg  -16.0237 4.24796 -8.7157
RightLeg  36.17 -6.28616 -5.17237
RightFoot  -20.3286 0.738933 11.1307
RightToes  -2.09809e-008 3.77894e-005 6.81332e-007
Spine  -6.1986 2.05455 0.0801959
Spine1  12.9033 1.82615 1.43745
HEad  -33.5452 39.473 -20.0226
LeftShoulder1  7.46222 -13.1638 -38.6379
LeftArm  -2.42758 10.4409 -27.7947
LeftForeArm  175.625 -62.6784 -161.46
LeftHand  -0.298275 -1.43283 5.23243
RightShoulder  3.86063 6.42909 32.9842
RightArm  9.81375 -23.0195 34.4154
RightForeArm  167.618 70.8024 151.907
RightHand  -0.158663 10.4437 -1.57369
LeftUpLeg  -20.8331 -11.6339 17.3731
LeftLeg  34.7877 7.45112 5.89133
LeftFoot  -14.4925 -0.430796 -18.6516
LeftToes  1.24773e-006 1.46318e-008 1.32523e-009
280
root  -1.53305 38.7003 -4.20677 -160.847 73.5755 -166.742
RightUpLeg  -14.0845 2.56714 -4.98546
RightLeg  31.0284 -6.11613 -4.2431
RightFoot  -13.6463 0.108349 10.5096
RightToes  -2.09809e-008 3.77894e-005 6.81332e-007
Spine  -6.97642 1.41592 0.346701
Spine1  13.0267 0.740513 2.72118
HEad  -32.0089 40.6019 -19.3514
LeftShoulder1  7.02493 -12.7493 -37.1488
LeftArm  -2.0667 14.6313 -32.4197
LeftForeArm  176.813 -62.9254 -161.385
LeftHand  -0.267212 -1.67657 4.55907
RightShoulder  3.85155 6.47624 32.7084
RightArm  9.89584 -24.7858 37.5895
RightForeArm  161.191 72.3693 148.378
RightHand  -0.267086 10.2813 -2.38632
LeftUpLeg  -19.1966 -11.5376 20.7068
LeftLeg  28.1829 9.00159 5.50398
LeftFoot  -3.95655 1.21962 -18.6103
LeftToes  1.24773e-006 1.46318e-008 1.32523e-009
281
root  -1.22219 40.2116 -3.23227 -162.002 72.1701 -169.197
RightUpLeg  -10.6464 -2.28321 -4.61879
RightLeg  20.8306 -0.124095 -0.42808
RightFoot  -6.67753 -0.601809 13.3303
RightToes  -2.09809e-008 3.77894e-005 6.81332e-007
Spine  -8.38116 0.351127 -4.00585
Spine1  11.4881 -1.04781 6.472
HEad  -26.2731 43.0461 -16.9901
LeftShoulder1  6.85184 -12.6177 -36.4505
LeftArm  -0.417643 21.39 -36.1871
LeftForeArm  174.578 -61.313 -162.348
LeftHand  -0.26892 -1.49971 4.69157
RightShoulder  3.79333 6.44645 32.2389
RightArm  11.9866 -27.3249 37.4689
RightForeArm  155.449 73.0994 146.079
RightHand  -0.21015 9.78061 -2.00088
LeftUpLeg  -17.8543 -7.40468 20.7121
LeftLeg  19.1443 10.1097 4.37899
LeftFoot  10.7089 3.54722 -18.3281
LeftToes  1.24773e-006 1.46318e-008 1.32523e-009
